<svg width="66" height="66" viewBox="0 0 66 66" fill="none" xmlns="http://www.w3.org/2000/svg">
<rect width="66" height="66" rx="19" fill="#FE552E"/>
<path d="M37.5183 27.372C44.287 30.5676 51.0865 33.8733 57.9906 37.177C58.5912 37.4649 59.0756 37.6369 58.9877 38.2145C58.9434 38.4915 58.763 38.7053 58.4464 38.856C55.8206 40.1002 48.9854 43.3724 37.9409 48.6726C36.4562 49.3861 35.3546 49.7989 34.636 49.911C33.1435 50.1467 31.666 49.9142 30.2035 49.2135C21.3147 44.9567 14.0624 41.4848 8.44674 38.798C7.79147 38.4831 7.89831 37.7431 8.49897 37.4243C8.6984 37.32 10.2796 36.5627 13.2425 35.1523C13.2722 35.1387 13.3056 35.1316 13.3393 35.1316C13.373 35.1316 13.4059 35.1387 13.4348 35.1523C25.2565 40.8131 31.2568 43.6847 31.4357 43.7672C32.2318 44.1368 33.1633 44.2663 34.2301 44.1555C34.7539 44.1014 35.6237 43.773 36.8392 43.1702C37.5151 42.8353 41.5654 40.8949 48.9902 37.349C49.004 37.3426 49.0155 37.3333 49.0235 37.3221C49.0314 37.3109 49.0357 37.2982 49.0357 37.2852C49.0357 37.2723 49.0314 37.2596 49.0235 37.2484C49.0155 37.2372 49.004 37.2279 48.9902 37.2215L44.795 35.2489C44.7582 35.2319 44.7168 35.2232 44.675 35.2235C44.6333 35.2239 44.5927 35.2333 44.5576 35.2508C39.8441 37.5242 36.5385 39.1033 34.6408 39.9881C33.9238 40.3217 33.1364 40.3043 32.2785 39.936C32.0522 39.8381 31.1199 39.4027 29.4817 38.6299C22.713 35.4324 15.9135 32.1267 9.00941 28.823C8.40875 28.5351 7.92442 28.3631 8.01227 27.7855C8.05658 27.5085 8.23702 27.2947 8.55357 27.144C11.1794 25.8998 18.0146 22.6276 29.0591 17.3274C30.5438 16.6139 31.6454 16.2011 32.364 16.089C33.8565 15.8533 35.334 16.0858 36.7965 16.7865C45.6853 21.0434 52.9376 24.5152 58.5533 27.202C59.2085 27.5169 59.1017 28.2569 58.501 28.5757C58.3016 28.68 56.7204 29.4373 53.7575 30.8477C53.7278 30.8613 53.6944 30.8684 53.6607 30.8684C53.627 30.8684 53.5941 30.8613 53.5652 30.8477C41.7435 25.1869 35.7432 22.3153 35.5643 22.2328C34.7682 21.8632 33.8367 21.7337 32.7699 21.8445C32.246 21.8986 31.3763 22.227 30.1608 22.8298C29.4849 23.1647 25.4346 25.1051 18.0098 28.651C17.996 28.6574 17.9845 28.6667 17.9765 28.6779C17.9686 28.6891 17.9643 28.7018 17.9643 28.7148C17.9643 28.7277 17.9686 28.7404 17.9765 28.7516C17.9845 28.7628 17.996 28.7721 18.0098 28.7785L22.205 30.7511C22.2418 30.7681 22.2832 30.7768 22.325 30.7765C22.3667 30.7761 22.4073 30.7667 22.4424 30.7492C27.1559 28.4758 30.4615 26.8967 32.3592 26.0119C33.0762 25.6783 33.8644 25.6957 34.7239 26.064C34.9502 26.1619 35.8817 26.5979 37.5183 27.372Z" fill="url(#paint0_linear_53_62)"/>
<defs>
<linearGradient id="paint0_linear_53_62" x1="33.5" y1="16" x2="33.5" y2="50" gradientUnits="userSpaceOnUse">
<stop stop-color="white" stop-opacity="0.7"/>
<stop offset="1" stop-color="white"/>
</linearGradient>
</defs>
</svg>
