<svg width="961" height="250" viewBox="0 0 961 250" fill="none" xmlns="http://www.w3.org/2000/svg">
<g clip-path="url(#clip0_247_69)">
<path d="M178.03 0H71.9697C32.2219 0 0 32.2219 0 71.9697V178.03C0 217.778 32.2219 250 71.9697 250H178.03C217.778 250 250 217.778 250 178.03V71.9697C250 32.2219 217.778 0 178.03 0Z" fill="#FE552E"/>
<path d="M142.116 103.682C167.755 115.786 193.511 128.308 219.663 140.822C221.938 141.912 223.773 142.564 223.44 144.752C223.272 145.801 222.589 146.611 221.39 147.182C211.443 151.895 185.552 164.289 143.717 184.366C138.093 187.068 133.921 188.632 131.199 189.057C125.545 189.949 119.949 189.069 114.409 186.415C80.7392 170.29 53.2683 157.139 31.9969 146.962C29.5148 145.769 29.9195 142.966 32.1947 141.759C32.9501 141.364 38.9395 138.495 50.1626 133.153C50.2751 133.101 50.4017 133.074 50.5293 133.074C50.657 133.074 50.7816 133.101 50.891 133.153C95.6702 154.595 118.399 165.472 119.076 165.785C122.092 167.185 125.62 167.675 129.661 167.256C131.645 167.051 134.94 165.807 139.544 163.523C142.104 162.255 157.446 154.905 185.571 141.473C185.623 141.449 185.666 141.414 185.697 141.371C185.727 141.329 185.743 141.281 185.743 141.232C185.743 141.183 185.727 141.135 185.697 141.092C185.666 141.05 185.623 141.015 185.571 140.99L169.68 133.518C169.54 133.454 169.383 133.421 169.225 133.422C169.067 133.424 168.913 133.459 168.78 133.526C150.926 142.137 138.405 148.118 131.217 151.47C128.501 152.734 125.518 152.668 122.269 151.273C121.411 150.902 117.88 149.253 111.675 146.325C86.0357 134.214 60.2801 121.692 34.1282 109.178C31.853 108.087 30.0184 107.436 30.3512 105.248C30.519 104.199 31.2025 103.389 32.4015 102.818C42.3479 98.1052 68.2388 85.7105 110.074 65.634C115.698 62.9313 119.871 61.3677 122.593 60.943C128.246 60.0502 133.843 60.9309 139.382 63.5851C173.052 79.7097 200.523 92.8605 221.794 103.038C224.276 104.231 223.872 107.034 221.596 108.241C220.841 108.636 214.852 111.505 203.629 116.847C203.516 116.899 203.39 116.926 203.262 116.926C203.134 116.926 203.01 116.899 202.9 116.847C158.121 95.4048 135.393 84.5275 134.715 84.215C131.699 82.815 128.171 82.3245 124.13 82.7442C122.146 82.9491 118.851 84.193 114.247 86.4764C111.687 87.7449 96.3448 95.0949 68.2206 108.526C68.1683 108.551 68.1248 108.586 68.0945 108.628C68.0645 108.671 68.0482 108.719 68.0482 108.768C68.0482 108.817 68.0645 108.865 68.0945 108.907C68.1248 108.95 68.1683 108.985 68.2206 109.009L84.1115 116.481C84.2509 116.546 84.4077 116.579 84.566 116.578C84.724 116.576 84.8778 116.54 85.0107 116.474C102.865 107.863 115.386 101.881 122.574 98.5298C125.29 97.2661 128.276 97.3321 131.532 98.7271C132.389 99.098 135.917 100.749 142.116 103.682Z" fill="url(#paint0_linear_247_69)"/>
<path d="M342.646 173L313.244 85.77H331.788L347.16 136.278L350.942 150.186H351.186C352.569 144.655 353.829 140.019 354.968 136.278L370.218 85.77H388.152L358.75 173H342.646ZM395.004 173V110.414H411.596V173H395.004ZM395.004 100.654V85.77H411.596V100.654H395.004ZM452.909 174.83C442.824 174.83 434.894 171.739 429.119 165.558C423.345 159.295 420.457 151.325 420.457 141.646C420.457 132.293 423.345 124.485 429.119 118.222C434.894 111.878 442.295 108.706 451.323 108.706C461.165 108.706 468.769 112.122 474.137 118.954C479.505 125.786 482.189 134.936 482.189 146.404H436.805C437.456 151.365 439.123 155.229 441.807 157.994C444.491 160.678 448.151 162.02 452.787 162.02C458.887 162.02 462.913 159.458 464.865 154.334H481.213C479.993 160.19 476.903 165.07 471.941 168.974C466.98 172.878 460.636 174.83 452.909 174.83ZM451.567 121.516C443.515 121.516 438.676 125.989 437.049 134.936H464.865C464.621 130.951 463.279 127.738 460.839 125.298C458.399 122.777 455.309 121.516 451.567 121.516ZM503.317 173L485.017 110.414H501.487L509.051 139.45L511.857 151.162H512.101C512.996 146.689 513.89 142.744 514.785 139.328L522.593 110.414H536.745L544.919 139.328L547.847 151.162H548.091C549.067 146.77 550.002 142.866 550.897 139.45L558.827 110.414H574.931L556.265 173H541.137L532.841 142.256L530.035 131.398H529.791C528.734 135.302 527.758 138.921 526.863 142.256L518.323 173H503.317ZM618.133 173V154.822H579.581V136.888L617.523 88.454H634.359V141.524H647.047V154.822H634.359V173H618.133ZM593.001 141.158V141.524H618.133V109.072H617.889L593.001 141.158ZM690.934 174.952C679.141 174.952 669.991 172.471 663.484 167.51C656.977 162.467 653.561 155.31 653.236 146.038H670.56C671.129 151.243 672.959 154.985 676.05 157.262C679.222 159.539 683.939 160.678 690.202 160.678C695.163 160.678 699.23 159.783 702.402 157.994C705.574 156.123 707.16 153.277 707.16 149.454C707.16 148.071 706.957 146.851 706.55 145.794C706.225 144.655 705.493 143.679 704.354 142.866C703.215 141.971 702.239 141.28 701.426 140.792C700.613 140.223 699.108 139.653 696.912 139.084C694.716 138.433 693.049 137.986 691.91 137.742C690.771 137.417 688.657 136.888 685.566 136.156C681.825 135.261 678.734 134.489 676.294 133.838C673.935 133.187 671.292 132.171 668.364 130.788C665.517 129.405 663.24 127.901 661.532 126.274C659.905 124.566 658.523 122.37 657.384 119.686C656.245 116.921 655.676 113.789 655.676 110.292C655.676 101.915 658.726 95.4893 664.826 91.016C671.007 86.4613 679.1 84.184 689.104 84.184C699.027 84.184 706.957 86.5427 712.894 91.26C718.831 95.9773 722.125 102.687 722.776 111.39H705.818C705.33 107.161 703.541 103.907 700.45 101.63C697.441 99.3527 693.618 98.214 688.982 98.214C684.183 98.214 680.361 99.1493 677.514 101.02C674.667 102.891 673.244 105.371 673.244 108.462C673.244 111.797 674.627 114.237 677.392 115.782C680.239 117.327 685.2 118.873 692.276 120.418C696.505 121.313 699.962 122.167 702.646 122.98C705.33 123.712 708.217 124.81 711.308 126.274C714.48 127.657 716.92 129.202 718.628 130.91C720.417 132.618 721.881 134.895 723.02 137.742C724.24 140.507 724.85 143.72 724.85 147.38C724.85 156.001 721.719 162.752 715.456 167.632C709.193 172.512 701.019 174.952 690.934 174.952ZM735.293 173V110.414H751.885V173H735.293ZM735.293 100.654V85.77H751.885V100.654H735.293ZM791.369 194.35C782.91 194.35 776.119 192.642 770.995 189.226C765.952 185.81 762.983 181.011 762.089 174.83H778.559C780.185 179.466 784.374 181.784 791.125 181.784C800.397 181.784 805.033 177.433 805.033 168.73V161.898H804.667C800.356 166.778 794.907 169.218 788.319 169.218C780.917 169.218 774.451 166.493 768.921 161.044C763.471 155.595 760.747 148.356 760.747 139.328C760.747 130.056 763.268 122.655 768.311 117.124C773.353 111.512 779.86 108.706 787.831 108.706C795.395 108.706 801.169 111.471 805.155 117.002H805.399V110.414H821.381V168.242C821.381 176.375 818.9 182.719 813.939 187.274C808.896 191.991 801.373 194.35 791.369 194.35ZM791.125 155.92C796.086 155.92 799.787 154.334 802.227 151.162C804.667 147.99 805.887 143.923 805.887 138.962C805.887 134.082 804.585 130.056 801.983 126.884C799.461 123.631 795.801 122.004 791.003 122.004C786.773 122.004 783.357 123.549 780.755 126.64C778.233 129.731 776.973 133.879 776.973 139.084C776.973 144.371 778.233 148.519 780.755 151.528C783.357 154.456 786.814 155.92 791.125 155.92ZM849.876 85.77V118.588H850.242C852.601 115.172 855.163 112.691 857.928 111.146C860.775 109.519 864.272 108.706 868.42 108.706C874.846 108.706 880.051 110.902 884.036 115.294C888.022 119.605 890.014 125.217 890.014 132.13V173H873.422V134.57C873.422 131.154 872.446 128.389 870.494 126.274C868.624 124.159 865.98 123.102 862.564 123.102C858.904 123.102 855.854 124.444 853.414 127.128C851.056 129.812 849.876 133.269 849.876 137.498V173H833.284V85.77H849.876ZM896.61 121.394V110.414H905.272V90.894H921.498V110.414H932.234V121.394H921.498V154.578C921.498 158.726 923.572 160.8 927.72 160.8L932.6 160.678V172.878C930.079 173.041 926.622 173.122 922.23 173.122C917.431 173.122 913.405 171.983 910.152 169.706C906.899 167.347 905.272 163.484 905.272 158.116V121.394H896.61Z" fill="white"/>
</g>
<defs>
<linearGradient id="paint0_linear_247_69" x1="126.896" y1="60.6059" x2="126.896" y2="189.394" gradientUnits="userSpaceOnUse">
<stop stop-color="white" stop-opacity="0.7"/>
<stop offset="1" stop-color="white"/>
</linearGradient>
<clipPath id="clip0_247_69">
<rect width="961" height="250" fill="white"/>
</clipPath>
</defs>
</svg>
